<svg width="550" height="285" viewBox="0 0 550 285" xmlns="http://www.w3.org/2000/svg">
<rect width="550" height="285" fill="#ffffff" stroke="#d0d0d0" stroke-width="1" rx="6"/>

<line x1="275.0" y1="52.0" x2="135.0" y2="127.0" stroke="#666666" stroke-width="1.5" />
<line x1="135.0" y1="127.0" x2="65.0" y2="202.0" stroke="#666666" stroke-width="1.5" />
<line x1="135.0" y1="127.0" x2="205.0" y2="202.0" stroke="#666666" stroke-width="1.5" />
<line x1="275.0" y1="52.0" x2="415.0" y2="127.0" stroke="#666666" stroke-width="1.5" />
<line x1="415.0" y1="127.0" x2="345.0" y2="202.0" stroke="#666666" stroke-width="1.5" />
<line x1="415.0" y1="127.0" x2="485.0" y2="202.0" stroke="#666666" stroke-width="1.5" />
<circle cx="275.0" cy="52.0" r="22" fill="#ffffff" stroke="#1a1a1a" stroke-width="2" />
<text x="275.0" y="52.0" text-anchor="middle" dominant-baseline="central" font-size="15" font-family="Helvetica,Arial,sans-serif" fill="#1a1a1a" font-weight="600">4</text>
<circle cx="135.0" cy="127.0" r="22" fill="#ffffff" stroke="#1a1a1a" stroke-width="2" />
<text x="135.0" y="127.0" text-anchor="middle" dominant-baseline="central" font-size="15" font-family="Helvetica,Arial,sans-serif" fill="#1a1a1a" font-weight="600">2</text>
<circle cx="65.0" cy="202.0" r="22" fill="#ffffff" stroke="#1a1a1a" stroke-width="2" />
<text x="65.0" y="202.0" text-anchor="middle" dominant-baseline="central" font-size="15" font-family="Helvetica,Arial,sans-serif" fill="#1a1a1a" font-weight="600">1</text>
<circle cx="205.0" cy="202.0" r="22" fill="#ffffff" stroke="#1a1a1a" stroke-width="2" />
<text x="205.0" y="202.0" text-anchor="middle" dominant-baseline="central" font-size="15" font-family="Helvetica,Arial,sans-serif" fill="#1a1a1a" font-weight="600">3</text>
<circle cx="415.0" cy="127.0" r="22" fill="#ffffff" stroke="#1a1a1a" stroke-width="2" />
<text x="415.0" y="127.0" text-anchor="middle" dominant-baseline="central" font-size="15" font-family="Helvetica,Arial,sans-serif" fill="#1a1a1a" font-weight="600">6</text>
<circle cx="345.0" cy="202.0" r="22" fill="#ffffff" stroke="#1a1a1a" stroke-width="2" />
<text x="345.0" y="202.0" text-anchor="middle" dominant-baseline="central" font-size="15" font-family="Helvetica,Arial,sans-serif" fill="#1a1a1a" font-weight="600">5</text>
<circle cx="485.0" cy="202.0" r="22" fill="#ffffff" stroke="#1a1a1a" stroke-width="2" />
<text x="485.0" y="202.0" text-anchor="middle" dominant-baseline="central" font-size="15" font-family="Helvetica,Arial,sans-serif" fill="#1a1a1a" font-weight="600">7</text>
</svg>